<?xml version="1.0" encoding="UTF-8" standalone="no"?>
<!-- Created with Inkscape (http://www.inkscape.org/) -->

<svg
   version="1.1"
   id="svg1"
   width="1024"
   height="1024"
   viewBox="0 0 1024 1024"
   sodipodi:docname="criticFilms.png"
   xmlns:inkscape="http://www.inkscape.org/namespaces/inkscape"
   xmlns:sodipodi="http://sodipodi.sourceforge.net/DTD/sodipodi-0.dtd"
   xmlns="http://www.w3.org/2000/svg"
   xmlns:svg="http://www.w3.org/2000/svg">
  <defs
     id="defs1" />
  <sodipodi:namedview
     id="namedview1"
     pagecolor="#ffffff"
     bordercolor="#000000"
     borderopacity="0.25"
     inkscape:showpageshadow="2"
     inkscape:pageopacity="0.0"
     inkscape:pagecheckerboard="0"
     inkscape:deskcolor="#d1d1d1">
    <inkscape:page
       x="0"
       y="0"
       width="1024"
       height="1024"
       id="page2"
       margin="0"
       bleed="0" />
  </sodipodi:namedview>
  <g
     inkscape:groupmode="layer"
     inkscape:label="Image"
     id="g1">
    <path
       style="fill:#000000"
       d="m 864.41016,766.38867 c -4.08986,0.13578 -7.94784,0.75832 -10.95313,1.89453 -15.2446,5.76355 -20.567,23.36502 -10.6875,35.3418 2.3522,2.85157 6.43496,5.38826 16.35156,10.15625 15.0684,7.24493 18.55274,10.36495 18.55274,16.60547 0,5.94724 -4.10561,10.05079 -10.69141,10.68359 -10.329,0.99249 -16.06047,-3.32273 -20.76367,-15.63086 -2.2174,-5.8029 -3.11696,-7.11211 -4.88086,-7.09961 -4.5435,0.0322 -4.95115,1.09971 -4.24805,11.11914 1.0946,15.5998 1.06888,15.53353 6.70118,17.4043 2.701,0.8971 7.04138,2.01605 9.64648,2.48633 5.6115,1.013 17.80677,0.35526 22.44727,-1.21094 1.8095,-0.61071 5.44337,-2.66911 8.07617,-4.57422 7.8065,-5.6488 10.91677,-14.0554 8.66797,-23.42968 -1.9428,-8.09824 -8.66034,-14.20949 -21.74024,-19.7793 -5.6571,-2.40894 -11.9414,-5.81167 -13.96679,-7.5625 -3.28121,-2.83636 -3.66448,-3.66297 -3.51368,-7.57617 0.1348,-3.4973 0.78113,-4.94073 3.17383,-7.08789 3.2249,-2.8941 8.62783,-4.38827 12.42383,-3.43555 4.1985,1.05377 7.37121,4.46526 9.62891,10.35352 1.2184,3.17766 2.61752,6.78984 3.10742,8.02734 0.687,1.73552 1.69098,2.25 4.39258,2.25 4.0611,0 4.67004,-1.40317 4.12304,-9.5 -0.1858,-2.75 -0.39393,-6.93692 -0.46093,-9.30469 -0.1207,-4.24192 -0.20725,-4.34165 -5.87305,-6.88281 -5.23669,-2.34874 -12.69725,-3.47434 -19.51367,-3.24805 z"
       id="path19" />
    <path
       style="fill:#000000"
       d="m 402.67578,766.32422 -2.25,0.0137 c -4.14242,0.0226 -26.16062,6.68829 -27.12109,8.21094 -1.59243,2.52452 -0.004,4.46052 4.21289,5.13476 2.64123,0.42235 4.7201,1.54346 6.08398,3.27735 1.96934,2.50361 2.07422,3.86148 2.07422,27.30859 0,27.96446 0.0993,27.5657 -7.63476,30.01758 -5.01083,1.58856 -6.57061,3.88314 -4.41016,6.48633 0.88157,1.06222 5.34942,1.31913 20.83398,1.20117 l 19.71094,-0.15039 0.31836,-2.77539 c 0.28634,-2.4924 -0.19869,-2.99235 -4.73828,-4.87891 -4.29037,-1.783 -5.21109,-2.65049 -6.06445,-5.72265 -0.57833,-2.08205 -1.00677,-17.33185 -1.00977,-35.87305 z"
       id="path18" />
    <path
       style="fill:#000000"
       d="m 630.28516,766.07422 c -3.17062,-0.11971 -26.84307,7.01084 -27.73633,8.41992 -1.67785,2.64674 -0.34501,4.06961 5.65625,6.04297 6.32871,2.08104 6.54518,3.13857 6.24023,30.50391 -0.30563,27.42658 -0.0596,26.58085 -8.54297,29.2832 -4.61629,1.4705 -6.06429,3.37975 -4.88867,6.44336 0.402,1.04759 4.76082,1.28871 20.83399,1.15234 l 20.32812,-0.17383 0.3086,-3.15234 c 0.28582,-2.91599 -9.4e-4,-3.24495 -3.81836,-4.38867 -7.14343,-2.14023 -6.99024,-1.27698 -6.99024,-39.51953 0,-24.85554 -0.31551,-34.29789 -1.15039,-34.57617 -0.0582,-0.0194 -0.13796,-0.0313 -0.24023,-0.0352 z"
       id="path17" />
    <path
       style="fill:#000000"
       d="m 297.32812,766.06641 c -1.40904,0.0296 -3.89772,0.61136 -8.20507,1.84375 -4.9217,1.40816 -10.74727,3.04411 -12.94727,3.63476 -4.94036,1.32636 -6.5,2.4932 -6.5,4.86328 0,1.28729 1.23731,2.20807 4.13477,3.07618 7.4742,2.23932 7.87246,3.79176 7.76172,30.33984 -0.0528,12.65 -0.40855,24.1196 -0.78907,25.48633 -0.69686,2.50294 -3.0906,4.08609 -8.59961,5.6875 -2.97494,0.86478 -4.18035,3.13456 -3.125,5.88476 0.45553,1.18708 3.98813,1.44141 20.00391,1.44141 10.69728,0 20.16127,-0.27162 21.03125,-0.60547 0.93119,-0.35733 1.58203,-1.78248 1.58203,-3.46289 0,-2.49023 -0.51713,-2.99328 -4.05273,-3.94531 -8.27005,-2.2269 -7.94559,-0.64753 -7.96289,-38.73633 -0.008,-18.5625 -0.37036,-34.30555 -0.80274,-34.98633 -0.22705,-0.35748 -0.68387,-0.53926 -1.5293,-0.52148 z"
       id="path16" />
    <path
       style="fill:#000000"
       d="m 233.67578,766.06445 -4.25,0.59375 c -2.3375,0.32644 -8.75,1.85549 -14.25,3.39649 -8.79212,2.46339 -10.04116,3.08671 -10.33789,5.17187 -0.37816,2.65736 1.2131,4.06119 4.63281,4.08399 1.2625,0.008 3.4,1.11875 4.75,2.46875 l 2.45508,2.45508 v 25.32226 c 0,28.69281 0.005,28.66614 -7.45898,30.75586 -3.95636,1.10771 -4.54102,1.62213 -4.54102,3.97656 0,1.48686 0.25765,2.96274 0.57422,3.2793 0.71733,0.71734 40.27893,0.84583 42.67578,0.13867 1.14307,-0.33726 1.75,-1.51751 1.75,-3.40234 0,-2.48268 -0.52364,-3.03173 -3.75,-3.92774 -2.0625,-0.57278 -4.33437,-1.04387 -5.04687,-1.04687 -0.7125,-0.003 -2.4,-1.10899 -3.75,-2.45899 l -2.45313,-2.45507 v -21.66211 -21.66407 l 3.88086,-3.88281 c 4.6238,-4.6238 7.50383,-4.9276 13.11914,-1.38281 2.17814,1.375 5.06857,2.5 6.42383,2.5 3.8796,0 7.6162,-3.89167 8.24609,-8.58789 1.03382,-7.70764 -4.23227,-13.41621 -12.37109,-13.40821 -4.85786,0.005 -8.90035,2.50114 -14.40625,8.89454 -2.41621,2.80568 -4.73008,5.10129 -5.14258,5.10156 -0.4125,2.7e-4 -0.75,-3.20738 -0.75,-7.12891 z"
       id="path15" />
    <path
       style="fill:#000000"
       d="m 460.94141,765.82422 c -9.66717,0.49523 -18.9359,4.24014 -26.0625,10.90625 -16.50936,15.44257 -17.73606,44.82486 -2.57227,61.60937 4.47815,4.95676 8.99047,7.75911 16.20508,10.06641 14.41133,4.60888 31.96124,-0.46396 40.97266,-11.8418 3.72423,-4.70224 3.83208,-5.34814 1.27734,-7.66015 -1.83177,-1.65773 -2.07944,-1.57976 -5.85156,1.82812 -11.14673,10.07041 -23.61515,10.17009 -33.70508,0.26953 -6.83188,-6.70365 -9.74377,-13.96244 -10.29883,-25.67773 -0.33036,-6.9727 -0.009,-9.54602 1.78516,-14.33008 3.9166,-10.44089 10.34046,-15.66992 19.25195,-15.66992 6.90469,0 12.19095,4.02668 16.05859,12.23047 3.59878,7.63349 4.76417,8.10116 11.16407,4.47656 4.34477,-2.46067 5.03733,-4.07457 4.0371,-9.40625 -0.89234,-4.75666 -8.10389,-11.62991 -14.80664,-14.11133 -5.7104,-2.11404 -11.65478,-2.98659 -17.45507,-2.68945 z"
       id="path14" />
    <path
       style="fill:#000000"
       d="m 721.97852,765.73242 c -2.37824,0.10711 -10.53548,2.21264 -25.30469,6.52735 -4.2842,1.25163 -3.39863,7.06445 1.07617,7.06445 3.4388,0 6.8242,2.27291 7.875,5.28711 0.6197,1.77777 1.04883,12.80108 1.04883,26.9082 v 23.89649 l -2.45313,2.45507 c -1.4559,1.45591 -3.61298,2.45313 -5.30078,2.45313 -4.5089,0 -6.93158,3.91412 -4.14648,6.69922 0.7314,0.73144 7.3381,1.05037 19.75,0.95117 l 18.65039,-0.15039 0.31445,-3.26172 c 0.2834,-2.94164 0.0114,-3.32271 -2.7793,-3.88086 -1.7022,-0.34043 -3.98125,-1.74599 -5.06445,-3.12305 -1.836,-2.33408 -1.9707,-4.14182 -1.9707,-26.69336 0,-23.83703 0.0351,-24.22286 2.26562,-26.31835 7.313,-6.87023 17.16708,-6.76137 23.73438,0.26171 2.4972,2.67038 2.50119,2.70009 2.80469,25.8125 0.1671,12.72649 0.0457,24.16779 -0.26954,25.42383 -0.3403,1.356 -2.08763,2.99373 -4.30273,4.0332 -2.7642,1.2971 -3.81302,2.45453 -4.04492,4.46485 -0.4202,3.64171 0.8323,3.85991 20.3125,3.54297 l 16,-0.26172 0.29883,-3.03516 c 0.263,-2.6849 -0.16,-3.23956 -3.6543,-4.78125 -2.1737,-0.95901 -4.31265,-2.51704 -4.75195,-3.46289 -0.4394,-0.94585 -0.96964,-12.23212 -1.17774,-25.08008 l -0.37695,-23.35937 2.75195,-2.87305 c 5.9331,-6.19287 15.9979,-7.47432 21.1836,-2.69726 4.7611,4.38588 5.22656,7.11157 5.22656,30.53515 0,23.93762 -0.20082,24.8528 -6.01172,27.25977 -2.6429,1.09474 -3.04776,1.73349 -2.78906,4.38867 l 0.30078,3.10547 16.5,0.24609 c 9.075,0.13513 17.5125,0.0155 18.75,-0.26758 3.9856,-0.91179 2.39245,-7.47851 -1.81445,-7.47851 -0.9158,0 -2.84963,-0.93235 -4.29883,-2.07227 l -2.63672,-2.07226 v -23.61133 c 0,-19.14433 -0.32036,-24.75304 -1.69336,-29.64648 -2.9408,-10.48097 -11.26741,-16.59766 -22.59961,-16.59766 -4.905,0 -9.28143,1.71547 -16.98633,6.6543 -3.7297,2.39067 -7.23396,4.3457 -7.78515,4.3457 -0.5512,0 -2.62859,-1.62669 -4.61719,-3.61524 -9.5826,-9.58263 -20.27327,-9.70285 -33.82227,-0.38086 -2.4816,1.70738 -4.9585,2.82925 -5.5039,2.49219 -0.5453,-0.33707 -0.99219,-2.58601 -0.99219,-4.99609 0,-2.41008 -0.46165,-4.66795 -1.02735,-5.01758 -0.10635,-0.0657 -0.32822,-0.0895 -0.66796,-0.0742 z"
       id="path13" />
    <path
       style="fill:#000000"
       d="m 340.07812,749.32422 c -3.20749,0 -3.54116,0.35169 -6.4414,6.74805 -3.47517,7.66431 -6.80599,11.58543 -12.19531,14.35742 -3.72613,1.91653 -5.56515,5.37502 -4.42969,8.33398 0.33382,0.86991 2.26279,1.56486 4.85937,1.75195 l 4.30469,0.3086 0.52344,27.5 c 0.61094,32.08495 1.0605,33.94206 9.47656,39.14062 4.21241,2.60198 16.40765,2.53845 22.25391,-0.11523 7.07537,-3.21158 10.67038,-8.23123 8.42578,-11.76563 -0.60595,-0.95415 -1.69373,-0.78029 -4.69531,0.75 -4.74081,2.417 -9.24642,2.54856 -12.36914,0.36133 -4.55906,-3.19329 -5.11524,-6.61021 -5.11524,-31.33789 v -23.0332 l 4.25,-0.125 c 2.3375,-0.0689 7.4,-0.1814 11.25,-0.25 l 7,-0.125 0.29883,-5.75 0.30078,-5.75 h -11.55078 -11.54883 v -8.91797 c 0,-11.20003 -0.33613,-12.08203 -4.59766,-12.08203 z"
       id="path12" />
    <path
       style="fill:#000000"
       d="m 622.00195,731.33984 c -8.1958,0.0316 -13.515,6.07829 -11.43945,13.00586 0.63794,2.12927 2.33554,4.79628 3.77148,5.92578 4.02631,3.1671 10.33909,2.7911 14.23438,-0.84765 2.61787,-2.44545 3.10742,-3.63498 3.10742,-7.57617 0,-6.24763 -3.94246,-10.52992 -9.67383,-10.50782 z"
       id="path11" />
    <path
       style="fill:#000000"
       d="m 393.93164,731.32422 c -4.46381,0 -7.67675,1.97983 -9.76172,6.01172 -2.69331,5.2083 -1.16875,10.94219 3.61524,13.59375 6.46987,3.58597 15.16167,-0.20389 16.4707,-7.18164 1.30626,-6.96293 -3.23223,-12.42383 -10.32422,-12.42383 z"
       id="path10" />
    <path
       style="fill:#000000"
       d="m 289.49805,731.32422 c -5.40042,0 -10.84031,5.11934 -10.78711,10.15039 0.0441,4.1678 1.95261,7.72491 5.07422,9.45508 3.26018,1.80698 8.97356,1.72531 11.67382,-0.16602 8.80885,-6.16997 4.7396,-19.43945 -5.96093,-19.43945 z"
       id="path9" />
    <path
       style="fill:#000000"
       d="m 552.67578,729.32422 -40.5,0.5 -0.33594,2.95117 c -0.3819,3.35595 1.82047,5.54883 5.57227,5.54883 1.29488,0 3.45859,1.10508 4.80859,2.45508 l 2.45508,2.45508 v 46.04492 c 0,52.26724 0.56208,48.8671 -8.48242,51.14453 -3.96967,0.99958 -4.51758,1.46901 -4.51758,3.85351 0,1.49304 0.29935,3.0142 0.66602,3.38086 0.83313,0.83315 44.59081,0.88986 46.75195,0.0606 0.93119,-0.35733 1.58203,-1.78248 1.58203,-3.46289 0,-2.52327 -0.49312,-2.97756 -4.25,-3.92578 -10.5173,-2.65443 -10.90686,-3.71892 -10.52344,-28.69922 l 0.27344,-17.80664 h 13.33984 c 12.63352,0 13.43646,0.12045 15.16211,2.2539 1.00222,1.23906 2.11958,4.01049 2.48243,6.15821 0.97324,5.76052 2.39454,7.2378 6.01562,6.25781 l 3,-0.81055 0.26953,-19.67968 0.27149,-19.67969 h -3.90821 c -3.89353,0 -3.90941,0.0185 -4.61718,4.73828 -0.93038,6.20417 -3.02067,10.10078 -5.78516,10.78711 -1.22749,0.30479 -7.63047,0.4249 -14.23047,0.26562 l -12,-0.29101 -0.1543,-20.25781 c -0.0847,-11.14261 0.0789,-21.15511 0.36524,-22.25 0.4872,-1.86305 1.38425,-1.99219 13.96289,-1.99219 7.3923,0 15.42467,0.50021 17.85156,1.11133 4.09337,1.03072 4.55497,1.4904 6.36719,6.33398 1.07443,2.87169 2.26958,6.90762 2.65625,8.96875 0.78252,4.17122 2.18448,5.1218 6.10156,4.13867 l 2.64649,-0.66406 -0.69336,-14.68945 c -0.38172,-8.07872 -1.01265,-14.91562 -1.40039,-15.19336 -0.38774,-0.27776 -18.92813,-0.28086 -41.20313,-0.006 z"
       id="path8" />
    <path
       style="fill:#000000"
       d="m 187.33008,726.76562 c -1.4273,0.004 -2.94459,1.38311 -4.57617,4.14844 -2.41782,4.09791 -3.53385,4.17953 -10.89258,0.79688 -8.7631,-4.02822 -19.92396,-5.65439 -29.66211,-4.32227 -13.19797,1.80542 -23.73425,7.30652 -34.36914,17.94141 -10.958256,10.95825 -16.540221,25.60676 -16.574221,43.49414 -0.02479,13.06145 1.310618,19.26205 6.460938,30 8.945313,18.65016 25.069843,29.55494 46.326173,31.33008 20.08276,1.67714 34.8852,-3.08733 46.61914,-15.00782 6.46831,-6.57114 7.11981,-8.94747 3.36133,-12.25195 -2.56036,-2.25108 -2.94899,-2.33813 -3.84766,-0.85351 -2.09304,3.45776 -9.14256,10.65381 -12.5,12.75976 -14.86718,9.32543 -33.97704,7.02556 -47.61328,-5.73047 -11.88799,-11.12064 -17.05135,-26.04499 -16.13281,-46.63476 0.77623,-17.39987 5.38882,-28.93931 15.16406,-37.93555 6.80773,-6.2652 11.56053,-8.12604 20.82031,-8.15234 14.29206,-0.0406 24.02604,5.78745 30.16797,18.06445 1.94056,3.87896 3.81797,8.59595 4.17188,10.48242 0.60187,3.20827 0.89387,3.42969 4.53125,3.42969 3.65809,0 4.21511,-0.47732 4.08203,-3.5 -0.0242,-0.55 -0.34959,-8.54696 -0.72461,-17.77149 -0.54377,-13.37499 -1.01711,-17.18426 -2.33399,-18.81054 -0.79832,-0.98589 -1.62214,-1.47891 -2.47851,-1.47657 z"
       id="path7" />
    <path
       style="fill:#000000"
       d="m 677.67383,724.32422 -3.25,0.0508 c -1.7875,0.0272 -8.65,1.54262 -15.25,3.36914 -11.1882,3.09629 -12.02067,3.49846 -12.31445,5.9375 -0.28257,2.34583 0.15907,2.7423 4.27734,3.84375 2.5259,0.67558 5.49541,2.19184 6.59961,3.36719 1.9478,2.0778 2.00698,3.41857 1.95898,48.4043 -0.0275,25.44724 -0.30955,46.68752 -0.62695,47.20117 -0.3175,0.51365 -2.66921,1.92743 -5.22461,3.14062 -4.522,2.1469 -5.92384,4.27783 -4.77734,7.26563 0.4711,1.22758 3.66653,1.42129 19.83593,1.19336 l 19.27149,-0.27344 v -3.41602 c 0,-3.13874 -0.35075,-3.53425 -4.31445,-4.85547 -2.914,-0.97135 -4.61821,-2.23683 -5.25,-3.89843 -0.53891,-1.41746 -0.93555,-25.53196 -0.93555,-56.89453 z"
       id="path6" />
    <path
       style="fill:#000000"
       d="m 396.17578,631.82422 -0.28516,10.75 -0.2832,10.75 -12.7168,0.0234 c -14.42117,0.0249 -18.80126,1.31755 -23.54492,6.95507 -4.22512,5.02127 -5.66992,9.52197 -5.66992,17.64454 v 7.37695 h 106 106 v -6.13281 c 0,-8.14852 -1.58422,-13.01982 -5.85547,-18.00977 -5.56367,-6.4999 -9.55031,-7.80828 -23.86133,-7.83398 l -12.21679,-0.0234 -0.28321,-10.75 -0.2832,-10.75 h -63.5 z"
       id="path5" />
    <path
       style="fill:#000000"
       d="m 462.7168,371.56445 c -158.26748,-0.22869 -181.09264,-0.0763 -185.63477,1.24414 -6.83262,1.9863 -14.36453,8.75049 -17.52148,15.73633 l -2.38477,5.2793 v 101.5 c 0,97.43219 0.0749,101.69808 1.9043,106.4414 3.08732,8.00486 10.68144,15.20852 18.58789,17.63086 1.37856,0.42235 83.95781,0.69096 183.50781,0.59766 l 181,-0.16992 5.12305,-2.70117 c 6.54481,-3.4525 12.76906,-10.52573 15.07226,-17.12696 1.6923,-4.85063 1.80274,-11.38968 1.80274,-105.67187 v -100.5 l -2.36914,-5.24024 c -2.6074,-5.76781 -7.73159,-10.93954 -14.33399,-14.46484 l -4.29492,-2.29492 z m -44.97461,54.75977 h 87.16797 l 3.88281,3.88281 3.88281,3.88281 -0.004,20.36719 c -0.003,18.59258 -0.17925,20.65307 -2.00196,23.64258 -1.09819,1.8012 -3.14999,3.7137 -4.56054,4.25 -1.59474,0.60631 -35.34792,0.97466 -89.25,0.97266 -83.43437,-0.004 -86.80036,-0.0755 -89.80274,-1.90625 -4.69356,-2.86202 -5.38086,-6.29057 -5.38086,-26.83985 0,-15.00447 0.30521,-19.09269 1.63477,-21.89453 3.17552,-6.69189 -1.7996,-6.35742 94.43164,-6.35742 z"
       id="path4" />
    <path
       style="fill:#000000"
       d="m 787.16602,363.38672 c -2.34694,-0.047 -4.95276,0.64322 -7.75391,2.07226 -2.3006,1.17365 -14.31889,7.99848 -26.70899,15.16602 -12.38999,7.16754 -25.45429,14.71256 -29.02929,16.76758 -3.575,2.05501 -15.5,8.92535 -26.5,15.26758 l -20,11.53125 -0.25586,64.42578 -0.25781,64.42578 3.75781,2.51758 c 6.8698,4.60138 99.66836,59.10181 102.25586,60.05468 2.6648,0.98133 5.036,0.74327 8.0332,-0.80664 6.3682,-3.29314 6.01867,4.48711 5.73047,-127.04297 l -0.26367,-119.61328 -2.80469,-2.41406 c -1.7678,-1.52051 -3.85619,-2.30458 -6.20312,-2.35156 z"
       id="path3" />
    <path
       style="fill:#000000"
       d="m 349.07422,146.85352 c -34.29464,-0.26273 -66.60677,15.21958 -87.3418,43.4707 -31.57748,43.02377 -28.56078,102.38782 7.14063,140.55273 15.7144,16.79875 37.78976,28.8203 60.30273,32.83985 10.42181,1.86074 25.84089,1.95293 36.5,0.21679 34.3582,-5.59623 64.71793,-27.98812 80.41016,-59.30468 17.07352,-34.07316 14.55078,-78.43739 -6.19727,-108.99024 -13.67242,-20.13353 -34.65095,-36.24258 -56.21289,-43.16406 -11.51683,-3.69696 -23.17001,-5.53352 -34.60156,-5.62109 z m 0.27539,29.64843 c 2.96168,0.16065 5.76591,0.91117 7.33594,2.33203 2.60298,2.35566 2.49713,4.95768 -0.91407,22.40235 -2.06193,10.54461 -3.30958,14.77101 -4.64843,15.75 -4.03708,2.95199 -6.84709,0.62822 -8.35743,-6.91211 -2.98791,-14.91709 -5.04025,-28.33457 -4.5625,-29.83984 0.83457,-2.62947 6.21035,-4.00017 11.14649,-3.73243 z m -29.875,5.95313 c 0.74669,0.007 1.1272,0.41613 1.72266,1.23047 0.69573,0.95146 1.57454,3.84784 1.95312,6.43554 0.37858,2.58769 1.80527,10.2647 3.17188,17.06055 1.3666,6.79585 2.25197,12.96387 1.96679,13.70703 -0.28518,0.74317 -2.37445,2.52327 -4.64258,3.95508 -2.26814,1.43181 -4.65123,2.78656 -5.29687,3.01172 -1.79011,0.62429 -32.11746,-16.87755 -32.47656,-18.74219 -0.44504,-2.3109 11.85603,-15.0132 19.17578,-19.80078 3.36974,-2.20402 8.09586,-4.76021 10.5039,-5.68164 2.06098,-0.78864 3.17518,-1.18301 3.92188,-1.17578 z m 59.43359,0.90234 c 1.55913,0.007 3.63026,0.87837 6.56446,2.36524 10.31741,5.22823 25.20312,18.54564 25.20312,22.54882 0,1.10778 -5.27311,4.6359 -15.75,10.53711 -8.6625,4.87924 -16.02342,9.00198 -16.35547,9.16211 -1.0478,0.50531 -9.92881,-5.56621 -10.56445,-7.22265 -0.3342,-0.87093 0.34398,-5.4858 1.50586,-10.25391 1.16188,-4.76812 2.79961,-11.96058 3.63867,-15.98437 1.67358,-8.02573 2.78131,-11.16527 5.75781,-11.15235 z m 39.375,42.13281 c 3.86172,0.74699 8.97007,15.74635 6.24805,18.34571 -0.74589,0.71228 -8.23342,2.23933 -16.63867,3.39258 -8.40524,1.15325 -16.37695,2.0957 -17.71485,2.0957 -3.79555,0 -6.18651,-6.42675 -3.25195,-8.74024 3.33505,-2.62922 29.8403,-15.38721 31.35742,-15.09375 z m -140.27148,0.16211 c 1.86579,-0.0175 5.64059,1.68567 15.31055,6.67188 17.29911,8.9201 20.27012,12.05 15.52343,16.3457 -1.00581,0.91025 -2.01831,1.58661 -2.25,1.50391 -0.23169,-0.0827 -6.71992,-1.03185 -14.41992,-2.11133 -20.22046,-2.83475 -21.5137,-3.22834 -21.4414,-6.52539 0.0898,-4.09421 4.19846,-14.3716 6.24218,-15.61523 0.27629,-0.16813 0.60459,-0.2655 1.03516,-0.26954 z m 69.92773,18.67188 c 6.91995,0 12.74143,5.80713 12.73243,12.70117 -0.004,3.26408 -3.09005,8.74278 -5.7129,10.14649 -9.1887,4.91764 -18.2832,-0.72942 -18.2832,-11.35157 0,-4.00689 0.49719,-5.19445 3.39844,-8.0957 2.85139,-2.85139 4.12056,-3.40039 7.86523,-3.40039 z m 77.31446,16.39258 c 3.60541,1.38352 -0.20076,18.4848 -6.92383,31.10547 -2.34282,4.39798 -4.91066,8.12108 -5.70703,8.27343 -1.42135,0.27191 -28.11468,-21.81924 -28.79688,-23.83203 -0.58454,-1.72465 3.92033,-11.75264 5.5625,-12.38281 2.48508,-0.95361 34.30923,-3.76116 35.86524,-3.16406 z m -150.86719,0.0254 c 0.40856,0.0201 0.85765,0.0661 1.35156,0.13672 1.34014,0.19171 8.2875,0.84868 15.4375,1.45898 17.57006,1.49971 17.0165,1.32391 18.88672,5.99805 2.94666,7.36442 2.69944,7.81029 -11.27734,20.38867 -7.08909,6.37981 -13.38232,11.59961 -13.98633,11.59961 -1.16815,0 -4.47992,-4.84909 -7.92774,-11.61133 -2.65658,-5.21039 -6.19531,-18.61735 -6.19531,-23.46875 0,-3.47444 0.85104,-4.64284 3.71094,-4.50195 z m 100.35351,27.49804 12.4668,11.75391 c 6.8571,6.46497 12.46875,12.47214 12.46875,13.34766 0,1.63473 -4.58282,6.40053 -8.97266,9.33203 -4.16559,2.78175 -6.57121,2.11014 -9.31445,-2.59961 -5.34702,-9.18006 -13.74433,-26.89032 -13.18164,-27.80078 0.32696,-0.52903 1.93143,-1.65357 3.56445,-2.49805 z m -53.15234,0.084 c 0.6821,0 2.55516,1.31492 4.16211,2.92187 3.4738,3.4738 3.74019,2.48495 -5.32422,19.82813 -5.02681,9.61794 -7.4255,13.25 -8.74805,13.25 -2.66942,0 -14.44036,-8.19015 -14.83789,-10.32422 -0.23097,-1.23992 3.48417,-5.65018 11.58399,-13.75 6.55852,-6.55852 12.48195,-11.92578 13.16406,-11.92578 z m 26.37891,9.05859 c 1.85294,-0.0974 3.77793,0.28461 4.97461,1.19141 2.35028,1.78094 14.88795,28.67608 14.53125,31.17187 -0.24848,1.73856 -1.60904,2.35162 -8.29688,3.74414 -9.71991,2.02383 -14.10697,2.0877 -22.24219,0.32032 -6.87149,-1.49283 -8.25781,-2.10205 -8.25781,-3.625 0,-1.66389 13.06109,-29.20601 14.75391,-31.11133 0.90375,-1.01721 2.68417,-1.59401 4.53711,-1.69141 z"
       id="path2" />
    <path
       style="fill:#000000"
       d="m 570.39844,146.75781 c -47.7286,-0.61877 -91.05002,30.33459 -104.57227,76.06641 -6.94075,23.47341 -6.67097,45.368 0.84961,68.8457 6.72123,20.98231 19.73603,39.07819 37.88672,52.67578 12.202,9.14114 29.57291,16.60235 44.11328,18.94922 4.125,0.66579 8.175,1.34227 9,1.50391 0.825,0.16164 5.40308,0.34635 10.17578,0.41015 23.76513,0.31769 47.65786,-7.30579 65.80078,-20.99609 53.76631,-40.57101 59.00399,-119.06408 11.10157,-166.37109 -18.19103,-17.96491 -39.37233,-27.95294 -64.75782,-30.53516 -3.21355,-0.32688 -6.41575,-0.50758 -9.59765,-0.54883 z m -1.83985,30.07422 c 5.77882,-0.005 7.42542,0.36305 9.10352,2.03906 1.90763,1.90524 1.97782,2.55913 1.00391,9.5 -0.57525,4.09965 -2.04722,11.90362 -3.26954,17.3418 -1.65987,7.38487 -2.75492,10.23991 -4.32812,11.27734 -1.83955,1.21306 -2.37576,1.16289 -4.22852,-0.38867 -2.03134,-1.7011 -3.12471,-6.38615 -7.6582,-32.82422 -0.91474,-5.33454 1.25034,-6.93831 9.37695,-6.94531 z m -28.01757,5.80274 c 0.56385,-0.0325 0.94711,0.10336 1.23046,0.38671 1.67888,1.67888 8.13445,35.54036 7.22657,37.90625 -0.27513,0.71697 -2.63822,2.67364 -5.25,4.34961 -2.61177,1.67597 -4.93331,3.02394 -5.16016,2.99414 -0.22685,-0.0298 -7.16211,-3.79079 -15.41211,-8.35742 -8.77766,-4.8587 -15.13773,-9.00433 -15.33203,-9.99218 -0.8376,-4.2584 13.97139,-18.38092 25.53906,-24.35547 3.80803,-1.9668 5.91772,-2.86021 7.15821,-2.93164 z m 58.75195,0.92578 c 2.26956,-0.0365 6.55959,1.783 11.85937,5.125 9.07977,5.72563 20.52344,16.96081 20.52344,20.15039 0,0.72726 -7.20878,5.41054 -16.01758,10.40625 -8.80881,4.9957 -16.19334,9.08203 -16.41015,9.08203 -1.16154,0 -10.57227,-8.22858 -10.57227,-9.24414 0,-1.99125 8.16518,-33.40598 9.0586,-34.85156 0.27023,-0.43726 0.80207,-0.65581 1.55859,-0.66797 z m 41.27148,41.26757 c 0.0806,0.003 0.14193,0.0165 0.18164,0.041 3.154,1.94927 7.43288,16.44248 5.56446,18.84766 -0.77018,0.99143 -6.28568,2.13063 -17.13477,3.53906 -8.8,1.14241 -16.92328,2.07622 -18.05078,2.07422 -2.81213,-0.006 -4.44922,-1.88648 -4.44922,-5.10938 0,-3.12033 1.52133,-4.14098 20.70703,-13.87304 6.29479,-3.19307 11.97286,-5.55977 13.18164,-5.51954 z m -141.50781,1.59961 c 2.64571,-0.11398 7.24955,2.20585 16.51172,6.84375 16.88137,8.45311 17.69649,9.21573 15.07226,14.11914 -0.81338,1.51981 -2.04543,1.91218 -5.75,1.83008 -5.01114,-0.11105 -28.39258,-3.36479 -30.79101,-4.28515 -1.85306,-0.71109 -1.80039,-3.64046 0.19336,-10.7461 1.43058,-5.09858 2.11796,-7.64773 4.76367,-7.76172 z m 70.23438,17.89649 c 3.86424,0 5.10946,0.52548 7.92578,3.3418 1.83758,1.83758 3.66197,4.62083 4.05468,6.18554 0.95201,3.79311 -1.42795,10.31286 -4.5957,12.58789 -3.6605,2.62892 -6.99067,3.02825 -11.5,1.37891 -2.2,-0.80467 -4.10123,-1.47052 -4.22461,-1.47852 -0.002,-1.3e-4 -0.006,-10e-4 -0.008,-0.002 -0.15283,-0.0726 -0.97427,-1.47746 -1.85352,-3.17773 -1.13715,-2.19903 -1.48971,-4.70073 -1.15429,-8.19141 0.65822,-6.85031 4.70529,-10.64453 11.35547,-10.64453 z m 75.60156,16.27148 c 0.92856,0.0162 1.52881,0.0736 1.69726,0.17774 3.98183,2.46092 -2.94285,26.34442 -10.51757,36.27539 -2.99073,3.92105 -3.97661,4.00118 -7.89649,0.64062 -17.91646,-15.36001 -23.5,-20.67598 -23.5,-22.37695 0,-1.06339 0.98557,-3.96528 2.19141,-6.44727 1.59749,-3.28811 3.02217,-4.7625 5.25,-5.43359 3.65845,-1.10203 26.27543,-2.94924 32.77539,-2.83594 z m -152.7168,0.22852 7.5,0.35547 c 4.125,0.1949 12.45,0.8699 18.5,1.5 l 11,1.14453 2.20703,4.5 c 3.41718,6.96191 3.07693,8.0808 -4.45703,14.57617 -3.7125,3.20071 -9.52416,8.4316 -12.91406,11.62305 -3.40498,3.20565 -7.08813,5.80078 -8.22852,5.80078 -1.61528,0 -3.03353,-2.01186 -6.52539,-9.25 -5.13353,-10.64109 -7.81957,-20.1337 -7.38476,-26.09766 z m 50.68555,28.5 c 2.46688,0 5.81411,3.06938 5.79101,5.30859 -0.0125,1.20632 -3.27497,8.45455 -7.25,16.10938 -3.97503,7.65482 -7.67656,14.06779 -8.22656,14.25 -1.56,0.51683 -8.89395,-3.4304 -13.05273,-7.02539 -2.88112,-2.49051 -3.55131,-3.63553 -2.85547,-4.87891 1.56055,-2.78855 24.15098,-23.76367 25.59375,-23.76367 z m 52.17969,0.0156 c 1.92107,-0.0158 24.8644,21.43239 25.4707,23.81055 0.45665,1.79113 -2.18156,4.54694 -7.81836,8.16406 -2.58109,1.65629 -5.55362,3.00791 -6.60547,3.00391 -1.4483,-0.005 -3.81573,-3.65433 -9.75391,-15.03711 -6.83748,-13.10663 -7.66956,-15.25094 -6.5,-16.74414 1.93038,-2.46458 3.09515,-3.17997 5.20704,-3.19727 z m -26.26368,8.13868 c 1.4471,0.0485 2.95614,0.34321 3.76368,0.77539 2.57008,1.37546 16.36123,29.77759 15.60937,32.14648 -0.37399,1.17834 -2.31403,2.15249 -5.75586,2.89063 -2.85527,0.61234 -7.6721,1.30757 -10.70508,1.54296 -5.97866,0.46399 -19.62194,-1.71569 -21.31054,-3.40429 -1.43199,-1.43199 0.18839,-5.9004 7.65625,-21.10547 5.80875,-11.82699 6.31245,-12.51537 9.34375,-12.8086 0.44052,-0.0426 0.91607,-0.0533 1.39843,-0.0371 z"
       id="path1" />
  </g>
</svg>
